<svg xmlns="http://www.w3.org/2000/svg" width="32" height="32" viewBox="0 0 32 32">
  <path d="M12.2 2.8c-1.25 0-2.25 1.01-2.25 2.25v10.16l-1.57-1.84a2.17 2.17 0 0 0-3.29 2.83l5.45 6.7c1.38 1.7 3.45 2.68 5.64 2.68h3.12c4.19 0 7.58-3.4 7.58-7.58v-4.46a2.02 2.02 0 0 0-4.04 0v-1.42a2.02 2.02 0 0 0-4.04 0v-1.17a2.02 2.02 0 0 0-4.04 0v-5.9c0-1.24-1.01-2.25-2.26-2.25h-.25z" fill="#ffffff" stroke="#151515" stroke-width="1.45" stroke-linecap="round" stroke-linejoin="round"/>
  <path d="M14.76 10.95v4.45M18.8 12.12v3.55M22.84 13.54v2.65" fill="none" stroke="#151515" stroke-width="1.05" stroke-linecap="round"/>
</svg>
